<mxfile host="Electron" modified="2024-06-25T08:38:06.123Z" agent="Mozilla/5.0 (Windows NT 10.0; Win64; x64) AppleWebKit/537.36 (KHTML, like Gecko) draw.io/24.5.3 Chrome/124.0.6367.207 Electron/30.0.6 Safari/537.36" etag="KZWx3_0lGlWXBi2tbLcQ" version="24.5.3" type="device">
  <diagram name="Seite-1" id="HLHpH_ou4ANuys2L_7Qh">
    <mxGraphModel dx="680" dy="408" grid="1" gridSize="10" guides="1" tooltips="1" connect="1" arrows="1" fold="1" page="1" pageScale="1" pageWidth="827" pageHeight="1169" math="0" shadow="0">
      <root>
        <mxCell id="0" />
        <mxCell id="1" parent="0" />
        <mxCell id="vn1dnEoQ3g9eWZXEqQMI-1" value="" style="endArrow=none;html=1;rounded=0;" parent="1" edge="1">
          <mxGeometry width="50" height="50" relative="1" as="geometry">
            <mxPoint x="280" y="650" as="sourcePoint" />
            <mxPoint x="280" y="640" as="targetPoint" />
          </mxGeometry>
        </mxCell>
        <mxCell id="vn1dnEoQ3g9eWZXEqQMI-2" value="" style="endArrow=none;html=1;rounded=0;fillColor=#f8cecc;strokeColor=#b85450;strokeWidth=2;startArrow=none;startFill=0;endFill=0;" parent="1" edge="1">
          <mxGeometry width="50" height="50" relative="1" as="geometry">
            <mxPoint x="270" y="390" as="sourcePoint" />
            <mxPoint x="440" y="560" as="targetPoint" />
          </mxGeometry>
        </mxCell>
        <mxCell id="vn1dnEoQ3g9eWZXEqQMI-3" value="" style="endArrow=classic;html=1;rounded=0;" parent="1" edge="1">
          <mxGeometry width="50" height="50" relative="1" as="geometry">
            <mxPoint x="200" y="640" as="sourcePoint" />
            <mxPoint x="590" y="640" as="targetPoint" />
          </mxGeometry>
        </mxCell>
        <mxCell id="vn1dnEoQ3g9eWZXEqQMI-4" value="" style="endArrow=classic;html=1;rounded=0;" parent="1" edge="1">
          <mxGeometry width="50" height="50" relative="1" as="geometry">
            <mxPoint x="200" y="650" as="sourcePoint" />
            <mxPoint x="200" y="360" as="targetPoint" />
          </mxGeometry>
        </mxCell>
        <mxCell id="vn1dnEoQ3g9eWZXEqQMI-6" value="" style="endArrow=none;html=1;rounded=0;" parent="1" edge="1">
          <mxGeometry width="50" height="50" relative="1" as="geometry">
            <mxPoint x="240" y="650" as="sourcePoint" />
            <mxPoint x="240" y="640" as="targetPoint" />
          </mxGeometry>
        </mxCell>
        <mxCell id="vn1dnEoQ3g9eWZXEqQMI-7" value="" style="endArrow=none;html=1;rounded=0;" parent="1" edge="1">
          <mxGeometry width="50" height="50" relative="1" as="geometry">
            <mxPoint x="320" y="650" as="sourcePoint" />
            <mxPoint x="320" y="640" as="targetPoint" />
          </mxGeometry>
        </mxCell>
        <mxCell id="vn1dnEoQ3g9eWZXEqQMI-8" value="" style="endArrow=none;html=1;rounded=0;" parent="1" edge="1">
          <mxGeometry width="50" height="50" relative="1" as="geometry">
            <mxPoint x="360" y="650" as="sourcePoint" />
            <mxPoint x="360" y="640" as="targetPoint" />
          </mxGeometry>
        </mxCell>
        <mxCell id="vn1dnEoQ3g9eWZXEqQMI-9" value="10&lt;sup&gt;4&lt;/sup&gt;" style="text;html=1;align=center;verticalAlign=middle;whiteSpace=wrap;rounded=0;" parent="1" vertex="1">
          <mxGeometry x="330" y="644" width="60" height="30" as="geometry" />
        </mxCell>
        <mxCell id="vn1dnEoQ3g9eWZXEqQMI-10" value="10&lt;sup&gt;3&lt;/sup&gt;" style="text;html=1;align=center;verticalAlign=middle;whiteSpace=wrap;rounded=0;" parent="1" vertex="1">
          <mxGeometry x="290" y="644" width="60" height="30" as="geometry" />
        </mxCell>
        <mxCell id="vn1dnEoQ3g9eWZXEqQMI-11" value="10&lt;sup&gt;2&lt;/sup&gt;" style="text;html=1;align=center;verticalAlign=middle;whiteSpace=wrap;rounded=0;" parent="1" vertex="1">
          <mxGeometry x="250" y="644" width="60" height="30" as="geometry" />
        </mxCell>
        <mxCell id="vn1dnEoQ3g9eWZXEqQMI-12" value="10&lt;sup&gt;1&lt;/sup&gt;" style="text;html=1;align=center;verticalAlign=middle;whiteSpace=wrap;rounded=0;" parent="1" vertex="1">
          <mxGeometry x="210" y="644" width="60" height="30" as="geometry" />
        </mxCell>
        <mxCell id="vn1dnEoQ3g9eWZXEqQMI-13" value="10&lt;sup&gt;0&lt;/sup&gt;" style="text;html=1;align=center;verticalAlign=middle;whiteSpace=wrap;rounded=0;" parent="1" vertex="1">
          <mxGeometry x="170" y="644" width="60" height="30" as="geometry" />
        </mxCell>
        <mxCell id="vn1dnEoQ3g9eWZXEqQMI-14" value="Lastwechsel (log)" style="text;html=1;align=center;verticalAlign=middle;whiteSpace=wrap;rounded=0;" parent="1" vertex="1">
          <mxGeometry x="510" y="641" width="60" height="30" as="geometry" />
        </mxCell>
        <mxCell id="vn1dnEoQ3g9eWZXEqQMI-15" value="" style="endArrow=none;html=1;rounded=0;" parent="1" edge="1">
          <mxGeometry width="50" height="50" relative="1" as="geometry">
            <mxPoint x="400" y="650" as="sourcePoint" />
            <mxPoint x="400" y="640" as="targetPoint" />
          </mxGeometry>
        </mxCell>
        <mxCell id="vn1dnEoQ3g9eWZXEqQMI-16" value="" style="endArrow=none;html=1;rounded=0;" parent="1" edge="1">
          <mxGeometry width="50" height="50" relative="1" as="geometry">
            <mxPoint x="440" y="650" as="sourcePoint" />
            <mxPoint x="440" y="640" as="targetPoint" />
          </mxGeometry>
        </mxCell>
        <mxCell id="vn1dnEoQ3g9eWZXEqQMI-17" value="" style="endArrow=none;html=1;rounded=0;" parent="1" edge="1">
          <mxGeometry width="50" height="50" relative="1" as="geometry">
            <mxPoint x="480" y="650" as="sourcePoint" />
            <mxPoint x="480" y="640" as="targetPoint" />
          </mxGeometry>
        </mxCell>
        <mxCell id="vn1dnEoQ3g9eWZXEqQMI-18" value="10&lt;sup&gt;5&lt;/sup&gt;" style="text;html=1;align=center;verticalAlign=middle;whiteSpace=wrap;rounded=0;" parent="1" vertex="1">
          <mxGeometry x="370" y="644" width="60" height="30" as="geometry" />
        </mxCell>
        <mxCell id="vn1dnEoQ3g9eWZXEqQMI-19" value="10&lt;sup&gt;6&lt;/sup&gt;" style="text;html=1;align=center;verticalAlign=middle;whiteSpace=wrap;rounded=0;" parent="1" vertex="1">
          <mxGeometry x="410" y="644" width="60" height="30" as="geometry" />
        </mxCell>
        <mxCell id="vn1dnEoQ3g9eWZXEqQMI-20" value="10&lt;sup&gt;7&lt;/sup&gt;" style="text;html=1;align=center;verticalAlign=middle;whiteSpace=wrap;rounded=0;" parent="1" vertex="1">
          <mxGeometry x="450" y="644" width="60" height="30" as="geometry" />
        </mxCell>
        <mxCell id="vn1dnEoQ3g9eWZXEqQMI-24" value="Spannungsamplitude&amp;nbsp;&lt;div&gt;(log)&lt;/div&gt;" style="text;html=1;align=center;verticalAlign=middle;whiteSpace=wrap;rounded=0;rotation=0;" parent="1" vertex="1">
          <mxGeometry x="135" y="326" width="130" height="30" as="geometry" />
        </mxCell>
        <mxCell id="vn1dnEoQ3g9eWZXEqQMI-29" value="0" style="text;html=1;align=right;verticalAlign=middle;whiteSpace=wrap;rounded=0;" parent="1" vertex="1">
          <mxGeometry x="148" y="625" width="40" height="30" as="geometry" />
        </mxCell>
        <mxCell id="vn1dnEoQ3g9eWZXEqQMI-30" value="" style="endArrow=none;html=1;rounded=0;" parent="1" edge="1">
          <mxGeometry width="50" height="50" relative="1" as="geometry">
            <mxPoint x="190" y="520" as="sourcePoint" />
            <mxPoint x="200" y="520" as="targetPoint" />
          </mxGeometry>
        </mxCell>
        <mxCell id="vn1dnEoQ3g9eWZXEqQMI-33" value="" style="endArrow=none;html=1;rounded=0;" parent="1" edge="1">
          <mxGeometry width="50" height="50" relative="1" as="geometry">
            <mxPoint x="190" y="480" as="sourcePoint" />
            <mxPoint x="200" y="480" as="targetPoint" />
          </mxGeometry>
        </mxCell>
        <mxCell id="vn1dnEoQ3g9eWZXEqQMI-34" value="" style="endArrow=none;html=1;rounded=0;" parent="1" edge="1">
          <mxGeometry width="50" height="50" relative="1" as="geometry">
            <mxPoint x="190" y="400" as="sourcePoint" />
            <mxPoint x="200" y="400" as="targetPoint" />
          </mxGeometry>
        </mxCell>
        <mxCell id="vn1dnEoQ3g9eWZXEqQMI-35" value="a,2" style="text;html=1;align=right;verticalAlign=middle;whiteSpace=wrap;rounded=0;" parent="1" vertex="1">
          <mxGeometry x="148" y="465" width="40" height="30" as="geometry" />
        </mxCell>
        <mxCell id="vn1dnEoQ3g9eWZXEqQMI-36" value="a,1" style="text;html=1;align=right;verticalAlign=middle;whiteSpace=wrap;rounded=0;" parent="1" vertex="1">
          <mxGeometry x="148" y="385" width="40" height="30" as="geometry" />
        </mxCell>
        <mxCell id="vn1dnEoQ3g9eWZXEqQMI-39" value="Bauteil-WÃ¶hlerkurve" style="text;html=1;align=center;verticalAlign=middle;whiteSpace=wrap;rounded=0;fillColor=none;strokeColor=none;fontColor=#EA6B66;rotation=45;" parent="1" vertex="1">
          <mxGeometry x="310" y="465" width="130" height="30" as="geometry" />
        </mxCell>
        <mxCell id="vn1dnEoQ3g9eWZXEqQMI-40" value="a,3" style="text;html=1;align=right;verticalAlign=middle;whiteSpace=wrap;rounded=0;" parent="1" vertex="1">
          <mxGeometry x="148" y="505" width="40" height="31" as="geometry" />
        </mxCell>
        <mxCell id="vn1dnEoQ3g9eWZXEqQMI-41" value="" style="endArrow=none;html=1;rounded=0;" parent="1" edge="1">
          <mxGeometry width="50" height="50" relative="1" as="geometry">
            <mxPoint x="190" y="640" as="sourcePoint" />
            <mxPoint x="200" y="640" as="targetPoint" />
          </mxGeometry>
        </mxCell>
        <mxCell id="XfvvGM56hz8QVLRvcrAE-1" value="" style="endArrow=none;html=1;rounded=0;fillColor=#f8cecc;strokeColor=#b85450;strokeWidth=2;" parent="1" edge="1">
          <mxGeometry width="50" height="50" relative="1" as="geometry">
            <mxPoint x="440" y="559.97" as="sourcePoint" />
            <mxPoint x="560" y="559.97" as="targetPoint" />
          </mxGeometry>
        </mxCell>
        <mxCell id="XfvvGM56hz8QVLRvcrAE-2" value="s" style="text;whiteSpace=wrap;fontFamily=Symbol;fontSize=14;" parent="1" vertex="1">
          <mxGeometry x="158" y="380" width="40" height="40" as="geometry" />
        </mxCell>
        <mxCell id="XfvvGM56hz8QVLRvcrAE-4" value="" style="endArrow=none;html=1;rounded=0;" parent="1" edge="1">
          <mxGeometry width="50" height="50" relative="1" as="geometry">
            <mxPoint x="190" y="580" as="sourcePoint" />
            <mxPoint x="200" y="580" as="targetPoint" />
          </mxGeometry>
        </mxCell>
        <mxCell id="XfvvGM56hz8QVLRvcrAE-5" value="a,4" style="text;html=1;align=right;verticalAlign=middle;whiteSpace=wrap;rounded=0;" parent="1" vertex="1">
          <mxGeometry x="148" y="565" width="40" height="30" as="geometry" />
        </mxCell>
        <mxCell id="XfvvGM56hz8QVLRvcrAE-6" value="s" style="text;whiteSpace=wrap;fontFamily=Symbol;fontSize=14;" parent="1" vertex="1">
          <mxGeometry x="159" y="460" width="40" height="40" as="geometry" />
        </mxCell>
        <mxCell id="XfvvGM56hz8QVLRvcrAE-7" value="s" style="text;whiteSpace=wrap;fontFamily=Symbol;fontSize=14;" parent="1" vertex="1">
          <mxGeometry x="159" y="500" width="40" height="40" as="geometry" />
        </mxCell>
        <mxCell id="XfvvGM56hz8QVLRvcrAE-8" value="s" style="text;whiteSpace=wrap;fontFamily=Symbol;fontSize=14;" parent="1" vertex="1">
          <mxGeometry x="159" y="558" width="40" height="40" as="geometry" />
        </mxCell>
        <mxCell id="hARTjh3Sy_JEfjSnx1Wy-1" value="" style="endArrow=none;dashed=1;html=1;rounded=0;fillColor=#d5e8d4;strokeColor=#82b366;" edge="1" parent="1">
          <mxGeometry width="50" height="50" relative="1" as="geometry">
            <mxPoint x="200" y="580" as="sourcePoint" />
            <mxPoint x="560" y="580" as="targetPoint" />
          </mxGeometry>
        </mxCell>
        <mxCell id="hARTjh3Sy_JEfjSnx1Wy-3" value="" style="endArrow=none;dashed=1;html=1;rounded=0;fillColor=#fff2cc;strokeColor=#d6b656;" edge="1" parent="1">
          <mxGeometry width="50" height="50" relative="1" as="geometry">
            <mxPoint x="200" y="520" as="sourcePoint" />
            <mxPoint x="400" y="520" as="targetPoint" />
          </mxGeometry>
        </mxCell>
        <mxCell id="hARTjh3Sy_JEfjSnx1Wy-4" value="" style="endArrow=none;dashed=1;html=1;rounded=0;fillColor=#ffe6cc;strokeColor=#d79b00;" edge="1" parent="1">
          <mxGeometry width="50" height="50" relative="1" as="geometry">
            <mxPoint x="200" y="480" as="sourcePoint" />
            <mxPoint x="360" y="480" as="targetPoint" />
          </mxGeometry>
        </mxCell>
        <mxCell id="hARTjh3Sy_JEfjSnx1Wy-5" value="" style="endArrow=none;dashed=1;html=1;rounded=0;strokeWidth=1;fillColor=#e1d5e7;strokeColor=#9673a6;" edge="1" parent="1">
          <mxGeometry width="50" height="50" relative="1" as="geometry">
            <mxPoint x="200" y="400" as="sourcePoint" />
            <mxPoint x="280" y="400" as="targetPoint" />
          </mxGeometry>
        </mxCell>
        <mxCell id="hARTjh3Sy_JEfjSnx1Wy-6" value="" style="endArrow=none;dashed=1;html=1;rounded=0;strokeWidth=1;fillColor=#e1d5e7;strokeColor=#9673a6;" edge="1" parent="1">
          <mxGeometry width="50" height="50" relative="1" as="geometry">
            <mxPoint x="280" y="640" as="sourcePoint" />
            <mxPoint x="280" y="400" as="targetPoint" />
          </mxGeometry>
        </mxCell>
        <mxCell id="hARTjh3Sy_JEfjSnx1Wy-7" value="" style="endArrow=none;dashed=1;html=1;rounded=0;strokeWidth=1;fillColor=#ffe6cc;strokeColor=#d79b00;" edge="1" parent="1">
          <mxGeometry width="50" height="50" relative="1" as="geometry">
            <mxPoint x="360" y="640" as="sourcePoint" />
            <mxPoint x="360" y="480" as="targetPoint" />
          </mxGeometry>
        </mxCell>
        <mxCell id="hARTjh3Sy_JEfjSnx1Wy-8" value="" style="endArrow=none;dashed=1;html=1;rounded=0;strokeWidth=1;fillColor=#fff2cc;strokeColor=#d6b656;" edge="1" parent="1">
          <mxGeometry width="50" height="50" relative="1" as="geometry">
            <mxPoint x="400" y="640" as="sourcePoint" />
            <mxPoint x="400" y="520" as="targetPoint" />
          </mxGeometry>
        </mxCell>
      </root>
    </mxGraphModel>
  </diagram>
</mxfile>
